HIERARCHY
ROOT Pelvis
{
	OFFSET 0.000000 0.000000 0.000000
	CHANNELS 6 Xposition Yposition Zposition Xrotation Yrotation Zrotation
	JOINT LeftUpLeg_virtual
	{
		OFFSET 0.000000 0.000000 0.000000
		CHANNELS 3 Xrotation Yrotation Zrotation
		JOINT LeftUpLeg
		{
			OFFSET 8.479700 -4.795502 -0.379100
			CHANNELS 3 Xrotation Yrotation Zrotation
			JOINT LeftLeg
			{
				OFFSET 0.024144 -32.555107 0.112900
				CHANNELS 3 Xrotation Yrotation Zrotation
				JOINT LeftFoot
				{
					OFFSET -0.024144 -32.638630 -3.012600
					CHANNELS 3 Xrotation Yrotation Zrotation
					JOINT LeftToeBase
					{
						OFFSET 0.970200 -13.225400 11.864200
						CHANNELS 3 Xrotation Yrotation Zrotation
						End Site
						{
							OFFSET 0 0 0
						}
					}
				}
			}
		}
	}
	JOINT RightUpLeg_virtual
	{
		OFFSET 0.000000 0.000000 0.000000
		CHANNELS 3 Xrotation Yrotation Zrotation
		JOINT RightUpLeg
		{
			OFFSET -8.479700 -4.795502 -0.379100
			CHANNELS 3 Xrotation Yrotation Zrotation
			JOINT RightLeg
			{
				OFFSET -0.023144 -32.555092 0.112900
				CHANNELS 3 Xrotation Yrotation Zrotation
				JOINT RightFoot
				{
					OFFSET 0.023144 -32.638641 -3.012700
					CHANNELS 3 Xrotation Yrotation Zrotation
					JOINT RightToeBase
					{
						OFFSET -0.970200 -13.225400 11.864200
						CHANNELS 3 Xrotation Yrotation Zrotation
						End Site
						{
							OFFSET 0 0 0
						}
					}
				}
			}
		}
	}
	JOINT Hips_virtual
	{
		OFFSET 0.000000 0.000000 0.000000
		CHANNELS 3 Xrotation Yrotation Zrotation
		JOINT Hips
		{
			OFFSET -0.000000 -0.000000 -0.000000
			CHANNELS 3 Xrotation Yrotation Zrotation
			JOINT Spine
			{
				OFFSET 0.000000 7.722000 1.166200
				CHANNELS 3 Xrotation Yrotation Zrotation
				JOINT Spine1
				{
					OFFSET 0.000000 12.024101 0.248800
					CHANNELS 3 Xrotation Yrotation Zrotation
					JOINT Spine2
					{
						OFFSET 0.000000 11.502998 -0.491200
						CHANNELS 3 Xrotation Yrotation Zrotation
						JOINT Neck_virtual
						{
							OFFSET 0.000000 0.000000 0.000000
							CHANNELS 3 Xrotation Yrotation Zrotation
							JOINT Neck
							{
								OFFSET 0.000000 18.430702 -3.123100
								CHANNELS 3 Xrotation Yrotation Zrotation
								JOINT Head
								{
									OFFSET 0.000000 9.051102 1.034000
									CHANNELS 3 Xrotation Yrotation Zrotation
									End Site
									{
										OFFSET 0 0 0
									}
								}
							}
						}
						JOINT LeftShoulder_virtual
						{
							OFFSET 0.000000 0.000000 0.000000
							CHANNELS 3 Xrotation Yrotation Zrotation
							JOINT LeftShoulder
							{
								OFFSET 6.197800 13.665199 -4.064700
								CHANNELS 3 Xrotation Yrotation Zrotation
								JOINT LeftArm
								{
									OFFSET 7.778100 -0.187103 -1.709300
									CHANNELS 3 Xrotation Yrotation Zrotation
									JOINT LeftForeArm
									{
										OFFSET 22.049376 0.000000 0.000000
										CHANNELS 3 Xrotation Yrotation Zrotation
										JOINT LeftHand
										{
											OFFSET 23.009392 0.000000 0.000000
											CHANNELS 3 Xrotation Yrotation Zrotation
											End Site
											{
												OFFSET 0 0 0
											}
										}
									}
								}
							}
						}
						JOINT RightShoulder_virtual
						{
							OFFSET 0.000000 0.000000 0.000000
							CHANNELS 3 Xrotation Yrotation Zrotation
							JOINT RightShoulder
							{
								OFFSET -6.197800 13.665199 -4.064700
								CHANNELS 3 Xrotation Yrotation Zrotation
								JOINT RightArm
								{
									OFFSET -7.778100 -0.187103 -1.709300
									CHANNELS 3 Xrotation Yrotation Zrotation
									JOINT RightForeArm
									{
										OFFSET -22.049376 0.000000 0.000000
										CHANNELS 3 Xrotation Yrotation Zrotation
										JOINT RightHand
										{
											OFFSET -23.009392 0.000000 0.000000
											CHANNELS 3 Xrotation Yrotation Zrotation
											End Site
											{
												OFFSET 0 0 0
											}
										}
									}
								}
							}
						}
					}
				}
			}
		}
	}
}
MOTION
Frames: 10
Frame Time: 0.03333333
89.139023 61.755543 173.514114 0.000000 0.000000 0.000000 -100.721453 -66.177129 177.347241 -65.371529 13.175371 34.458475 95.372554 -3.421533 -9.766441 13.046086 -10.352618 -7.801992 0.000000 0.000000 0.000000 -100.721453 -66.177129 177.347241 -60.348403 16.341890 -49.004176 60.868248 2.512902 -2.796732 3.188756 2.015293 18.014551 0.000000 0.000000 0.000000 -100.721453 -66.177129 177.347241 0.000000 0.000002 0.000000 11.557675 1.571751 1.876152 4.854285 11.245307 9.491956 0.000000 0.000000 0.000000 -0.264529 4.650233 6.859574 17.054958 5.940621 9.977821 0.000000 0.000000 0.000000 -0.264529 4.650233 6.859574 0.094777 -6.199209 -0.123044 9.665285 -8.508373 -0.913030 0.000014 -16.045873 0.000004 0.000000 0.000000 0.000000 -0.264529 4.650233 6.859574 0.702717 0.170139 17.086862 -42.474337 9.627235 15.642591 0.000001 21.324554 -0.000006 0.000000 0.000000 0.000000 
91.590782 58.702164 176.745422 0.000000 0.000000 0.000000 -100.027349 -65.476639 176.620086 -65.696236 12.955281 33.255781 96.104225 -3.319964 -9.500455 12.714255 -10.214071 -7.192754 0.000000 0.000000 0.000000 -100.027349 -65.476639 176.620086 -60.792741 15.601349 -48.814945 57.484101 2.141123 -3.303774 6.793050 2.678471 20.066443 0.000000 0.000000 0.000000 -100.027349 -65.476639 176.620086 0.000000 0.000003 0.000000 11.655177 1.396018 1.400241 5.544256 11.383313 9.197801 0.000000 0.000000 0.000000 -0.042809 4.627745 6.563425 15.374954 5.803015 9.269357 0.000000 0.000000 0.000000 -0.042809 4.627745 6.563425 0.193432 -6.244336 -0.490219 8.939521 -6.671608 0.394171 -0.000005 -17.704895 -0.000002 0.000000 0.000000 0.000000 -0.042809 4.627745 6.563425 0.757833 0.219494 18.065763 -42.841084 9.112737 16.864219 -0.000002 24.910781 -0.000006 0.000000 0.000000 0.000000 
93.996780 55.303047 180.139084 0.000000 0.000000 0.000000 -98.981319 -65.951794 176.060407 -65.656512 12.282724 30.709234 96.909272 -3.129726 -8.768593 12.052612 -8.893326 -6.677074 0.000000 0.000000 0.000000 -98.981319 -65.951794 176.060407 -60.615853 14.026079 -49.635459 53.702694 1.796071 -3.888405 9.991425 3.681239 21.924081 0.000000 0.000000 0.000000 -98.981319 -65.951794 176.060407 0.000000 0.000001 0.000000 11.758147 1.134969 1.337266 5.957492 11.339481 9.012857 0.000000 0.000000 0.000000 0.073764 4.191048 6.295741 13.799715 5.635492 8.568027 0.000000 0.000000 0.000000 0.073764 4.191048 6.295741 0.268091 -6.237658 -0.973503 7.893513 -4.110883 1.992687 -0.000017 -21.678773 -0.000006 0.000000 0.000000 0.000000 0.073764 4.191048 6.295741 0.787626 0.240701 18.556500 -42.487919 7.719415 18.634646 -0.000002 29.131286 0.000008 0.000000 0.000000 0.000000 
96.573761 51.446487 183.659058 0.000000 0.000000 0.000000 -98.890887 -65.726904 173.861946 -66.280484 10.693278 28.717773 97.928035 -2.950505 -7.927729 12.599729 -8.485223 -6.208821 0.000000 0.000000 0.000000 -98.890887 -65.726904 173.861946 -62.509304 13.647626 -48.876096 52.901967 2.443970 -5.590069 11.839807 4.402688 24.271460 0.000000 0.000000 0.000000 -98.890887 -65.726904 173.861946 0.000000 0.000001 0.000000 11.876030 0.871594 1.621593 6.189671 11.236939 8.879457 0.000000 0.000000 0.000000 0.150941 3.491569 6.062969 12.506455 5.434264 7.875163 0.000000 0.000000 0.000000 0.150941 3.491569 6.062969 0.299034 -6.173945 -1.669671 6.360276 2.416613 3.605614 -0.000005 -28.398060 -0.000016 0.000000 0.000000 0.000000 0.150941 3.491569 6.062969 1.035446 0.349696 19.024061 -41.972957 5.617788 20.313736 0.000009 34.549552 -0.000001 0.000000 0.000000 0.000000 
99.624229 46.734303 187.975357 0.000000 0.000000 0.000000 -100.270913 -63.346364 171.158954 -66.976241 10.057930 25.431540 97.120236 -0.308283 -7.003899 13.876512 -7.426816 -7.240247 0.000000 0.000000 0.000000 -100.270913 -63.346364 171.158954 -64.962920 12.465654 -47.062712 45.851183 1.583053 -6.114823 18.409438 7.431930 23.931759 0.000000 0.000000 0.000000 -100.270913 -63.346364 171.158954 0.000000 0.000000 0.000000 12.021573 0.762409 2.144694 6.471727 11.084024 8.784405 0.000000 0.000000 0.000000 0.445378 2.770588 5.891453 11.640464 5.195603 7.192128 0.000000 0.000000 0.000000 0.445378 2.770588 5.891453 0.150620 -6.043555 -3.147665 4.885613 7.041747 4.864234 -0.000001 -28.737068 0.000006 0.000000 0.000000 0.000000 0.445378 2.770588 5.891453 0.910772 0.309281 19.874508 -41.661155 4.331573 22.138658 0.000013 40.042875 -0.000011 0.000000 0.000000 0.000000 
103.124298 41.165867 192.975906 0.000000 0.000000 0.000000 -102.101506 -58.589178 168.340339 -68.538503 10.209873 21.967244 94.043003 -1.621790 -5.659706 16.834342 -1.754698 -10.862657 0.000000 0.000000 0.000000 -102.101506 -58.589178 168.340339 -66.846508 11.184989 -42.665528 35.082700 0.605132 -6.981266 26.241522 8.580952 24.172077 0.000000 0.000000 0.000000 -102.101506 -58.589178 168.340339 0.000000 0.000001 0.000000 12.183356 0.832877 2.755891 6.711699 10.907678 8.733021 0.000000 0.000000 0.000000 0.793516 2.181025 5.865493 11.073714 4.915767 6.520250 0.000000 0.000000 0.000000 0.793516 2.181025 5.865493 -0.143362 -5.763683 -5.380099 2.164464 16.408954 5.612870 -0.000010 -38.812444 -0.000011 0.000000 0.000000 0.000000 0.793516 2.181025 5.865493 0.867815 0.330690 20.919276 -41.450905 2.050944 23.384804 0.000001 46.812498 0.000005 0.000000 0.000000 0.000000 
107.559219 34.245056 199.229614 0.000000 0.000000 0.000000 -104.061620 -49.018116 165.670459 -70.990917 9.190516 19.872236 88.551832 4.518087 -4.725839 22.391004 -2.208318 -14.435753 0.000000 0.000000 0.000000 -104.061620 -49.018116 165.670459 -78.861378 14.387124 -31.827811 37.916265 -0.222356 -6.511241 27.276348 7.122260 20.617655 0.000000 0.000000 0.000000 -104.061620 -49.018116 165.670459 0.000000 -0.000002 0.000000 12.363749 1.084964 3.196788 6.776492 10.711422 8.774129 0.000000 0.000000 0.000000 1.102001 1.953581 6.037215 11.020231 4.591014 5.860864 0.000000 0.000000 0.000000 1.102001 1.953581 6.037215 -0.402349 -5.311633 -7.757072 -1.431224 31.188495 3.323689 -0.000036 -60.418330 -0.000016 0.000000 0.000000 0.000000 1.102001 1.953581 6.037215 0.867099 0.505552 22.720184 -41.589309 -1.043973 23.666652 -0.000001 53.515171 0.000007 0.000000 0.000000 0.000000 
111.792725 27.331841 205.591461 0.000000 0.000000 0.000000 -104.290814 -38.586163 164.973316 -72.329272 7.863778 19.922118 82.043201 10.636214 -4.046032 28.559914 -2.302953 -17.202438 0.000000 0.000000 0.000000 -104.290814 -38.586163 164.973316 -91.085723 14.150074 -20.544449 43.887121 -1.064662 -5.471779 22.084454 3.523279 14.795122 0.000000 0.000000 0.000000 -104.290814 -38.586163 164.973316 0.000000 -0.000003 0.000001 12.543704 1.466485 3.531637 7.067429 10.514830 8.931354 0.000000 0.000000 0.000000 1.761986 2.128681 6.453774 11.602044 4.217640 5.215334 0.000000 0.000000 0.000000 1.761986 2.128681 6.453774 -0.447590 -4.777507 -9.526006 -1.076496 39.181578 -2.503116 -0.000119 -75.134034 -0.000112 0.000000 0.000000 0.000000 1.761986 2.128681 6.453774 0.934361 0.857766 24.348747 -42.098981 -5.225457 22.712155 -0.000009 58.964176 0.000006 0.000000 0.000000 0.000000 
115.774780 20.759018 211.536606 0.000000 0.000000 0.000000 -104.300137 -28.812036 164.547016 -73.529049 6.235893 21.685996 76.065576 10.704013 -4.055848 33.586697 1.436588 -21.156304 0.000000 0.000000 0.000000 -104.300137 -28.812036 164.547016 -94.040018 11.769021 -10.606614 36.052511 -2.684024 -5.213999 29.673866 3.567266 10.795051 0.000000 0.000000 0.000000 -104.300137 -28.812036 164.547016 0.000000 0.000002 0.000000 12.712493 1.961002 3.773399 6.942536 10.336708 9.288589 0.000000 0.000000 0.000000 2.164717 2.666130 7.069457 13.090753 3.791965 4.585001 0.000000 0.000000 0.000000 2.164717 2.666130 7.069457 0.627042 -4.278464 -6.424868 4.587689 39.001613 -16.318280 -0.000083 -83.418193 -0.000060 0.000000 0.000000 0.000000 2.164717 2.666130 7.069457 0.796495 1.040679 23.150843 -41.751611 -10.010172 22.002082 -0.000037 63.321222 0.000025 0.000000 0.000000 0.000000 
119.556938 14.963112 217.065887 0.000000 0.000000 0.000000 -102.481135 -17.050430 164.937225 -73.578513 5.506256 28.305245 71.890514 10.764558 -4.128648 36.368479 2.628360 -25.171341 0.000000 0.000000 0.000000 -102.481135 -17.050430 164.937225 -94.797001 8.625958 1.055990 27.249325 -2.708581 -4.883788 37.693990 2.855554 7.157497 0.000000 0.000000 0.000000 -102.481135 -17.050430 164.937225 0.000001 0.000000 0.000000 12.868818 2.407119 3.951235 6.052249 10.101333 10.088627 0.000000 0.000000 0.000000 2.014670 3.450695 7.724223 14.521249 3.310303 3.971151 0.000000 0.000000 0.000000 2.014670 3.450695 7.724223 3.959419 -3.336312 7.820867 15.137738 25.376451 -41.408486 -0.000656 -80.732570 -0.000671 0.000000 0.000000 0.000000 2.014670 3.450695 7.724223 0.713469 1.988635 19.414785 -37.722452 -17.365877 23.481666 -0.000036 68.871673 0.000033 0.000000 0.000000 0.000000 
